<svg width="304" height="24" viewBox="0 0 304 24" fill="none" xmlns="http://www.w3.org/2000/svg">
<path d="M10.0305 24C7.35333 24 4.99185 23.0763 2.94601 21.2289C0.982003 19.3045 0 17.0832 0 14.5649V0.395876H5.01523V14.5649C5.01523 15.8625 5.50623 16.9732 6.48823 17.8969C7.47024 18.8206 8.65098 19.2825 10.0305 19.2825H19.2367C20.6162 19.2825 21.797 18.8206 22.779 17.8969C23.761 16.9732 24.252 15.8625 24.252 14.5649V0.395876H29.2672V14.5649C29.2672 17.0832 28.291 19.3045 26.3387 21.2289C24.2812 23.0763 21.9139 24 19.2367 24H10.0305Z" fill="white"/>
<path d="M37.8071 6.03711V24H32.7919V0.395876H38.8768L58.3064 18.3753V0.395876H63.3216V24H57.2367L37.8071 6.03711Z" fill="white"/>
<path d="M66.8463 0.395876H71.8616V24H66.8463V0.395876Z" fill="white"/>
<path d="M81.0678 24H75.3687L88.8713 0.395876H94.132L100.883 12.1979L107.635 24H101.935L91.5016 5.7732L81.0678 24Z" fill="#D20240"/>
<path d="M107.985 14.5649V9.84742C107.985 7.31821 108.967 5.09141 110.931 3.16701C112.977 1.31959 115.339 0.395876 118.016 0.395876H127.222C129.899 0.395876 132.266 1.31959 134.324 3.16701C136.148 4.91546 137.124 7.01031 137.252 9.45155H132.22C132.079 8.20893 131.536 7.17526 130.589 6.35052C129.654 5.52577 128.531 5.1134 127.222 5.1134H118.016C116.636 5.1134 115.455 5.57526 114.473 6.49897C113.491 7.42268 113 8.53883 113 9.84742V14.5649C113 15.8625 113.491 16.9732 114.473 17.8969C115.455 18.8206 116.636 19.2825 118.016 19.2825H127.222C128.531 19.2825 129.654 18.8701 130.589 18.0454C131.536 17.2206 132.079 16.1924 132.22 14.9608H137.252C137.124 17.3911 136.148 19.4804 134.324 21.2289C132.266 23.0763 129.899 24 127.222 24H118.016C115.339 24 112.977 23.0763 110.931 21.2289C108.967 19.3045 107.985 17.0832 107.985 14.5649Z" fill="#D20240"/>
<path d="M143.32 24H137.621L151.123 0.395876H156.384L169.886 24H164.187L153.754 5.7732L143.32 24Z" fill="#D20240"/>
<path d="M190.964 0.395876C193.642 0.395876 196.003 1.31959 198.049 3.16701C200.013 5.09141 200.995 7.31821 200.995 9.84742V14.5649C200.995 17.0832 200.013 19.3045 198.049 21.2289C196.003 23.0763 193.642 24 190.964 24H173.394V12.1979V0.395876H190.964ZM190.964 5.1134H178.409V19.2825H190.964C192.344 19.2825 193.525 18.8206 194.507 17.8969C195.489 16.9732 195.98 15.8625 195.98 14.5649V9.84742C195.98 8.53883 195.489 7.42268 194.507 6.49897C193.525 5.57526 192.344 5.1134 190.964 5.1134Z" fill="#D20240"/>
<path d="M204.502 14.5649V9.84742H230.017V14.5649H204.502ZM230.017 0.395876V5.1134H204.502V0.395876H230.017ZM230.017 19.2825V24H204.502V19.2825H230.017Z" fill="#D20240"/>
<path d="M238.557 6.84536V24H233.541V0H238.977L251.936 14.4495L264.895 0H270.331V24H265.316V6.84536L251.936 21.7567L238.557 6.84536Z" fill="#D20240"/>
<path d="M291.304 24H286.289V14.7794L273.839 0.395876H280.309L288.919 10.3423L297.529 0.395876H304L291.304 15.0763V24Z" fill="#D20240"/>
</svg>
